<svg width="218" height="248" viewBox="0 0 218 248" fill="none" xmlns="http://www.w3.org/2000/svg">
<path fill-rule="evenodd" clip-rule="evenodd" d="M109.5 0C97.0736 0 87 10.0736 87 22.5V35.2784C56.3138 44.6797 34 73.234 34 107V143.509C14.7268 146.591 0 163.293 0 183.435C0 195.345 9.65508 205 21.5652 205H196.435C208.345 205 218 195.345 218 183.435C218 163.293 203.273 146.591 184 143.509V107C184 73.6019 162.17 45.3025 132 35.5925V22.5C132 10.0736 121.926 0 109.5 0ZM74.0968 214C73.491 214 73 214.491 73 215.097C73 233.269 87.7313 248 105.903 248H112.097C130.269 248 145 233.269 145 215.097C145 214.491 144.509 214 143.903 214H74.0968Z" fill="black"/>
</svg>
