<svg width="236" height="214" viewBox="0 0 236 214" fill="none" xmlns="http://www.w3.org/2000/svg">
<path fill-rule="evenodd" clip-rule="evenodd" d="M61.2499 170H15C6.71573 170 0 163.284 0 155V71C0 62.7157 6.71573 56 15 56H61.1736C61.366 55.8438 61.5631 55.6922 61.7648 55.5455L133.765 3.17363C143.018 -3.55722 156 3.05283 156 14.4953V199.952C156 210.684 144.42 217.425 135.087 212.126L63.0875 171.245C62.4369 170.876 61.8233 170.459 61.2499 170ZM166 148.55C166 154.989 172.985 158.779 177.718 154.414C191.475 141.724 200 124.103 200 104.624C200 85.1451 191.475 67.5245 177.718 54.8346C172.985 50.4687 166 54.2589 166 60.698C166 63.0956 167.067 65.3513 168.777 67.0326C178.924 77.0122 185 90.3678 185 104.624C185 118.88 178.924 132.236 168.777 142.216C167.067 143.897 166 146.153 166 148.55ZM181.579 187.098C176.854 189.027 172 185.311 172 180.207C172 176.873 174.148 173.952 177.206 172.624C202.502 161.644 221 134.917 221 102.5C221 70.0826 202.502 43.3564 177.206 32.3757C174.148 31.0481 172 28.1271 172 24.7931C172 19.6894 176.854 15.9734 181.579 17.9017C213.396 30.8853 236 63.8655 236 102.5C236 141.135 213.396 174.115 181.579 187.098Z" fill="black"/>
</svg>
